# xmcd
#
# Track frame offsets: 
#        150
#        11700
#        25537
#        38437
#        55650
#        66637
#        79312
#        88762
#        103650
#        118050
#        131362
#        141675
#
# Disc length: 2095 seconds
#
# Revision: 0
# Processed by: cddbd v1.4PL0 Copyright (c) Steve Scherf et al.
# Submitted via: ExactAudioCopy v0.90b4
#
DISCID=a3082d0c
DTITLE=Rambler's Choice - Sounds of the Mountains
DYEAR=1998
DGENRE=Bluegrass
TTITLE0=Enough on My Mind
TTITLE1=What About You
TTITLE2=Sounds of the Mountains
TTITLE3=Mama's Flowers
TTITLE4=Sit and Sing the Blues
TTITLE5=No More Painting up This Town
TTITLE6=Sweet Country Lovin'
TTITLE7=When the Mountain Dew Starts Falling
TTITLE8=Shotgun Slade
TTITLE9=Education from on High
TTITLE10=Springtime and Roses
TTITLE11=Poor Rambler
EXTD=
EXTT0=
EXTT1=
EXTT2=
EXTT3=
EXTT4=
EXTT5=
EXTT6=
EXTT7=
EXTT8=
EXTT9=
EXTT10=
EXTT11=
PLAYORDER=
